<svg width="19" height="15" viewBox="0 0 19 15" fill="none" xmlns="http://www.w3.org/2000/svg">
<g clip-path="url(#clip0_14_739)">
<path d="M18.0386 7.54604C18.0386 3.37791 14.0002 -0.000839233 9.01929 -0.000839233C4.03613 9.82667e-05 -0.0022583 3.37791 -0.0022583 7.54697C-0.0022583 11.3129 3.29655 14.4348 7.60777 15.001V9.7276H5.31913V7.54697H7.61003V5.88291C7.61003 3.99197 8.95729 2.9476 11.0171 2.9476C12.0047 2.9476 13.0363 3.09479 13.0363 3.09479V4.95104H11.8987C10.7792 4.95104 10.4297 5.53322 10.4297 6.13041V7.54604H12.9303L12.5312 9.72666H10.4286V15.0001C14.7398 14.4338 18.0386 11.312 18.0386 7.54604Z" fill="#059BE5"/>
</g>
<defs>
<clipPath id="clip0_14_739">
<rect width="18.0386" height="15" rx="7.5" fill="white"/>
</clipPath>
</defs>
</svg>
