<svg width="19" height="15" viewBox="0 0 19 15" fill="none" xmlns="http://www.w3.org/2000/svg">
<path d="M14.8497 5.0137H14.2458V4.98782H7.49778V7.48174H11.7351C11.117 8.9335 9.45582 9.97565 7.49778 9.97565C5.01339 9.97565 2.99911 8.30067 2.99911 6.23478C2.99911 4.16889 5.01339 2.49391 7.49778 2.49391C8.64456 2.49391 9.68788 2.85366 10.4823 3.44129L12.603 1.67778C11.2639 0.64 9.47269 0 7.49778 0C3.35713 0 0 2.79162 0 6.23478C0 9.67794 3.35713 12.4696 7.49778 12.4696C11.6384 12.4696 14.9956 9.67794 14.9956 6.23478C14.9956 5.81674 14.9438 5.40867 14.8497 5.0137Z" fill="#FFC107"/>
<path d="M0.864014 3.3328L3.32741 4.83507C3.99396 3.4628 5.60823 2.49391 7.4973 2.49391C8.64408 2.49391 9.6874 2.85366 10.4818 3.44129L12.6025 1.67778C11.2634 0.64 9.47221 0 7.4973 0C4.6174 0 2.11989 1.35201 0.864014 3.3328Z" fill="#FF3D00"/>
<path d="M7.49789 12.4698C9.43457 12.4698 11.1943 11.8535 12.5248 10.8512L10.2042 9.21833C9.42615 9.71038 8.4754 9.9765 7.49789 9.97586C5.54772 9.97586 3.89184 8.94182 3.26802 7.49878L0.822998 9.06527C2.06388 11.0844 4.58388 12.4698 7.49789 12.4698Z" fill="#4CAF50"/>
<path d="M14.8498 5.0137H14.2458V4.98782H7.4978V7.48174H11.7352C11.4395 8.17268 10.9068 8.77644 10.203 9.21843L10.2041 9.21781L12.5247 10.8507C12.3605 10.9748 14.9956 9.35217 14.9956 6.23478C14.9956 5.81674 14.9438 5.40867 14.8498 5.0137Z" fill="#1976D2"/>
</svg>
