<svg width="13" height="11" viewBox="0 0 13 11" fill="none" xmlns="http://www.w3.org/2000/svg">
<path d="M9.0964 6.12575C9.20011 5.8953 9.25272 5.65113 9.25168 5.40507C9.25168 4.85874 8.99069 4.33479 8.52612 3.94848C8.06155 3.56217 7.43146 3.34514 6.77446 3.34514C6.48221 3.34542 6.19237 3.38915 5.91863 3.47426L6.50001 3.97273C6.58839 3.96097 6.67773 3.95495 6.76724 3.95471C7.23178 3.9539 7.67784 4.10598 8.00801 4.37772C8.33818 4.64946 8.52564 5.01879 8.52946 5.40507C8.52916 5.4795 8.52191 5.55379 8.50779 5.62728L9.0964 6.12575Z" fill="#C7D2D6"/>
<path d="M12.3825 5.26394C11.1655 3.39319 9.03136 2.26112 6.6697 2.26112C6.02668 2.26238 5.38799 2.34853 4.77747 2.51636L5.35886 3.00282C5.78709 2.91079 6.22741 2.86338 6.6697 2.86169C8.70275 2.86169 10.5516 3.80457 11.653 5.39306C11.249 5.9824 10.7134 6.50218 10.075 6.9245L10.5877 7.3509C11.3266 6.85524 11.9402 6.24292 12.3933 5.54921L12.4872 5.40507L12.3825 5.26394Z" fill="#C7D2D6"/>
<path d="M1.75861 1.73563L3.36916 3.07489C2.35116 3.61993 1.51916 4.37384 0.953331 5.26394L0.859442 5.40507L0.953331 5.54921C2.17027 7.41996 4.30444 8.55202 6.6661 8.55202C7.5879 8.55187 8.49771 8.37838 9.32749 8.04455L11.133 9.54596L11.765 9.09553L2.37611 1.28821L1.75861 1.73563ZM5.27944 4.66338L7.68083 6.66025C7.4095 6.79991 7.09714 6.87471 6.77805 6.87645C6.54619 6.87646 6.31662 6.83834 6.10255 6.76428C5.88847 6.69023 5.69412 6.5817 5.53068 6.44495C5.36723 6.3082 5.23792 6.14593 5.15018 5.96746C5.06244 5.789 5.01801 5.59787 5.01944 5.40507C5.02351 5.1428 5.11339 4.88639 5.27944 4.66338ZM4.75583 4.22797C4.41799 4.62416 4.25963 5.10698 4.30881 5.59094C4.35799 6.0749 4.61153 6.52878 5.02453 6.87222C5.43754 7.21565 5.98336 7.42648 6.56536 7.46737C7.14736 7.50827 7.72799 7.37659 8.20444 7.09566L8.78221 7.57611C8.11336 7.81385 7.3935 7.93643 6.6661 7.93645C4.63305 7.93645 2.78416 6.99356 1.68277 5.40507C2.21134 4.62681 2.97256 3.97519 3.89277 3.5133L4.75583 4.22797Z" fill="#C7D2D6"/>
</svg>
